<svg xmlns="http://www.w3.org/2000/svg" viewBox="0 0 253.02 48.38"><defs><style>.cls-1{fill:#fff;}</style></defs><g id="Layer_2" data-name="Layer 2"><g id="Layer_1-2" data-name="Layer 1"><path class="cls-1" d="M45.21,9,40.68,13.5A22,22,0,0,0,24.82,6.79a18.12,18.12,0,0,0-13.11,5.05A16.83,16.83,0,0,0,6.47,24.49a16.9,16.9,0,0,0,5.08,12q5.08,5.31,14,5.32,13.4,0,16.84-11.64H30.3V24H49.39a34.94,34.94,0,0,1-.61,7.34,21.6,21.6,0,0,1-2.55,6,21.89,21.89,0,0,1-5.15,5.91A20.14,20.14,0,0,1,34.19,47a30.15,30.15,0,0,1-8.77,1.12q-11.61,0-18.51-7.28A23.55,23.55,0,0,1,0,24.21,22.67,22.67,0,0,1,7.07,7.4,23.51,23.51,0,0,1,24.19.46,31.41,31.41,0,0,1,35.1,2.27,29.73,29.73,0,0,1,45.21,9Z"/><path class="cls-1" d="M57,1.86H81.77V8H63V19.16H81.77v6.05H63v15.4H81.77v6H57Z"/><path class="cls-1" d="M145.81,0l12.25,46.65h-6l-7.42-28.5L131.89,48.38,119.09,17.9l-7.52,28.75h-6L117.86,0l14,33.38Z"/><path class="cls-1" d="M162.61,15.3H180v4.28H166.84v7.83H180v4.23H166.84V42.42H180v4.23H162.61Z"/><path class="cls-1" d="M185.08,15.3h7.6q9,0,13.44,4.77A15.67,15.67,0,0,1,210.52,31,15.34,15.34,0,0,1,206,41.9q-4.56,4.76-13.24,4.75h-7.65Zm4.28,4.18V42.42h.24a44,44,0,0,0,7.19-.43,12,12,0,0,0,4.58-1.88,10.5,10.5,0,0,0,3.44-3.85A11,11,0,0,0,206.09,31a11.18,11.18,0,0,0-2-6.55,10.15,10.15,0,0,0-4.88-3.94,23.62,23.62,0,0,0-7.65-1Z"/><path class="cls-1" d="M215.4,15.3h4.23V46.65H215.4Z"/><path class="cls-1" d="M238.22,14.09,253,46.65h-4.48l-3.64-8H231.59l-3.59,8h-4.46Zm0,9.79-5,11.18h10.09Z"/></g></g></svg>