<svg width="63px" height="25px" viewBox="2 7 63 25" version="1.1" xmlns="http://www.w3.org/2000/svg" xmlns:xlink="http://www.w3.org/1999/xlink">
    <!-- Generator: Sketch 41.2 (35397) - http://www.bohemiancoding.com/sketch -->
    <desc>Created with Sketch.</desc>
    <defs></defs>
    <path d="M2.428,31 L7.004,31 L7.004,21.496 L12.636,21.496 C17.276,21.496 20.444,18.264 20.444,14.328 C20.444,10.36 17.244,7.16 12.796,7.16 L2.428,7.16 L2.428,31 Z M7.004,17.72 L7.004,10.936 L12.284,10.936 C14.876,10.936 16.06,12.312 16.06,14.36 C16.06,16.344 14.556,17.72 11.964,17.72 L7.004,17.72 Z M29.98,13.368 C24.796,13.368 21.084,17.336 21.084,22.392 C21.084,27.48 24.796,31.416 29.98,31.416 C34.14,31.416 37.468,29.112 38.524,25.4 L34.044,25.4 C33.34,27.032 32.156,27.832 30.14,27.832 C27.676,27.832 25.916,26.04 25.468,23.608 L38.716,23.608 C38.908,17.528 35.452,13.368 29.98,13.368 Z M25.564,20.568 C26.012,18.232 27.772,16.792 29.884,16.792 C31.932,16.792 33.948,18.008 34.236,20.568 L25.564,20.568 Z M48.892,13.368 C43.708,13.368 39.996,17.336 39.996,22.392 C39.996,27.48 43.708,31.416 48.892,31.416 C53.052,31.416 56.38,29.112 57.436,25.4 L52.956,25.4 C52.252,27.032 51.068,27.832 49.052,27.832 C46.588,27.832 44.828,26.04 44.38,23.608 L57.628,23.608 C57.82,17.528 54.364,13.368 48.892,13.368 Z M44.476,20.568 C44.924,18.232 46.684,16.792 48.796,16.792 C50.844,16.792 52.86,18.008 53.148,20.568 L44.476,20.568 Z M64.668,7.16 L60.252,7.16 L60.252,31 L64.668,31 L64.668,7.16 Z" id="Peel" stroke="none" fill="#FFFFFF" fill-rule="evenodd"></path>
</svg>
